<?xml version="1.0" encoding="UTF-8"?>
<svg id="Layer_1" xmlns="http://www.w3.org/2000/svg" version="1.1" viewBox="0 0 327.4 200">
  <!-- Generator: Adobe Illustrator 29.0.0, SVG Export Plug-In . SVG Version: 2.1.0 Build 186)  -->
  <defs>
    <style>
      .st0 {
        fill: #231f20;
      }

      .st1 {
        fill: #00adee;
      }

      .st2 {
        fill: #2959a7;
      }
    </style>
  </defs>
  <g>
    <path class="st2" d="M187.59,140.46l-6.86-16.28c-.47-1.1-.92-1.87-1.35-2.31-.43-.44-.99-.7-1.68-.78v-.59c.08,0,.25,0,.51-.03.27-.02.47-.03.6-.03.61,0,1.25.08,1.93.24.68.16,1.33.5,1.97,1.03s1.19,1.35,1.66,2.47l4.8,11.37,6.33-14.81h1.44l-8.45,19.73h-.91Z"/>
    <path class="st2" d="M211.65,140.17c-.69,0-1.22-.1-1.6-.31-.38-.21-.65-.58-.81-1.12-.16-.54-.24-1.3-.24-2.28v-15.72h3.36v15.72c0,.88.12,1.6.37,2.14.25.54.81.81,1.69.81h.41v.77h-3.18Z"/>
    <path class="st2" d="M227.63,140.17v-15.72c0-.88-.12-1.59-.37-2.13-.25-.54-.81-.81-1.69-.81h-.44v-.77h12.81c.69,0,1.21.11,1.56.34.35.23.6.52.74.88.14.36.21.74.21,1.13v2.38h-.77c0-1.22-.32-2.1-.96-2.65s-1.55-.82-2.72-.82h-5.04v7.48h7.77v1.27h-7.77v8.16h5.09c1.18,0,2.15-.24,2.91-.72.77-.48,1.39-1.34,1.89-2.58l.71.24-.94,2.5c-.18.57-.44,1.02-.79,1.34-.35.32-.89.49-1.62.49h-10.57Z"/>
    <path class="st2" d="M259.73,140.44l-6.1-16.25c-.43-1.12-.87-1.89-1.31-2.33-.44-.43-1.03-.69-1.75-.77v-.59c.08,0,.26,0,.53-.03.27-.02.48-.03.62-.03.63,0,1.28.07,1.97.22.69.15,1.34.49,1.96,1.02.62.53,1.14,1.36,1.57,2.5l3.98,10.66,2.86-8.27-.91-2.39c-.43-1.12-.89-1.89-1.37-2.33-.48-.43-1.08-.69-1.78-.77v-.59c.08,0,.24,0,.49-.03.25-.02.44-.03.57-.03.65,0,1.31.08,2,.24.69.16,1.34.5,1.96,1.02.62.52,1.13,1.35,1.55,2.49l4.12,10.98,5.04-14.43h1.35l-6.89,19.7h-.94l-4.45-11.87-4.12,11.87h-.94Z"/>
    <path class="st2" d="M295.21,140.67c-.8,0-1.6-.08-2.38-.24-.79-.16-1.51-.39-2.17-.71-.66-.31-1.18-.69-1.56-1.13-.38-.44-.57-.94-.57-1.49v-3.33h.71c.31,2.02.95,3.46,1.91,4.33.96.86,2.27,1.3,3.92,1.3.73,0,1.37-.11,1.94-.32.57-.22,1.02-.54,1.34-.99.32-.44.49-.98.49-1.6,0-.84-.27-1.56-.81-2.13s-1.3-1.17-2.28-1.78l-3.62-2.15c-1.32-.77-2.24-1.55-2.78-2.36-.54-.8-.81-1.75-.81-2.83,0-1.55.57-2.78,1.71-3.68,1.14-.9,2.65-1.35,4.53-1.35.78,0,1.56.08,2.33.24.77.16,1.47.39,2.11.69.64.3,1.15.67,1.53,1.1s.57.93.57,1.5v3.33h-.71c-.33-2.02-.97-3.46-1.9-4.31-.93-.85-2.17-1.28-3.72-1.28-.65,0-1.24.12-1.77.35-.53.24-.94.57-1.24,1-.29.43-.44.95-.44,1.56,0,.82.28,1.5.84,2.03s1.33,1.08,2.31,1.65l3.62,2.15c1.3.77,2.25,1.52,2.86,2.25.61.74.91,1.64.91,2.72,0,1.69-.6,3.02-1.81,4.01-1.21.98-2.89,1.47-5.05,1.47Z"/>
  </g>
  <path class="st0" d="M116.53,40.38c1.83-1.74,3.19-3.67,4.08-5.8,1.4-3.34,1.27-5.93-.36-7.78-1.63-1.85-4.72-2.78-9.25-2.78h-15.33l-1.39,3.35h10.56c5.39,0,6.95,2.68,5.09,7.13-1.07,2.57-2.02,4.94-4.26,5.99-2.05.97-4.17,1.25-7.94,1.25h-4.88s3.65-8.67,3.65-8.67h-4.6l-5.18,12.32h13.89c3.9,0,6.98-.36,9.24-1.08,2.48-.8,4.71-2.11,6.68-3.93M216.45,24v.02s-5.69,0-5.69,0l-21.87,20.47,8.55-20.47h-9.38l-11.33,8.88-5.83,4.79h-.27l2.75-6.98-3.35-6.69h-9.42l-8.56,20.5-4.94-20.5h-10.32l-22.8,21.37h5.7l5.82-5.59h14.37l1.14,5.59h15.26l5.52-13.21c.28-.66.54-1.42.8-2.28.02.69.21,1.42.55,2.19l4.85,11.02h.82l13.88-10.98c.52-.41,1.31-1.16,2.36-2.23-.54,1-.91,1.75-1.13,2.28l-5.52,13.21h10.08s10.62,0,10.62,0l5.76-5.61h14.92l1.2,5.61h5.25l-5.11-21.38h-4.7ZM128.52,36.87l9.09-8.7,1.64,8.7h-10.73ZM207.91,36.84l9.34-9.09,1.94,9.09h-11.27ZM261.67,24.21l.07-.19h-15.33c-4.52,0-8.38.93-11.56,2.78-3.18,1.85-5.46,4.45-6.86,7.78-.89,2.13-1.14,4.06-.76,5.8.44,1.82,1.57,3.13,3.39,3.93,1.66.72,4.44,1.08,8.34,1.08h13.86l1.38-3.39h-7.81c-3.77,0-6.27-.48-7.52-1.45-1.37-1.05-1.22-3.47-.15-6.05,1.86-4.44,5.75-7.21,11.13-7.21h6.05l-1.39,3.34h4.6l2.68-6.41h-.13Z"/>
  <path class="st2" d="M90.86,112.24c-1.35-.68-2.48-1.62-3.42-2.86-.93-1.23-1.39-2.64-1.39-4.22-1.21.91-2.4,1.85-3.57,2.83-1.16.98-2.43,1.86-3.79,2.66-1.36.79-2.88,1.44-4.55,1.95-1.67.51-3.6.76-5.79.76-2.02,0-3.85-.33-5.49-.99-1.63-.66-3.02-1.56-4.15-2.71-1.13-1.15-2.01-2.51-2.63-4.1-.63-1.58-.94-3.29-.94-5.1,0-2.23.44-4.23,1.32-6.02.88-1.79,2.08-3.38,3.62-4.78,1.54-1.4,3.32-2.65,5.34-3.75,2.02-1.09,4.18-2.07,6.48-2.93,2.29-.86,4.65-1.62,7.08-2.3,2.43-.68,4.79-1.3,7.08-1.87v-3.24c0-2.36-.17-4.35-.51-5.97-.34-1.62-.86-2.93-1.57-3.92-.71-.99-1.61-1.7-2.7-2.12-1.1-.42-2.4-.63-3.92-.63s-2.78.28-4,.86c-1.21.58-2.28,1.34-3.21,2.3-.93.96-1.69,2.09-2.27,3.39-.59,1.3-.85,2.69-3.15,3.78-2.65,1.25-7.44.35-7.44.35,0,0,1.04-4.22,2.3-5.97,1.26-1.75,2.85-3.23,4.78-4.43,1.92-1.19,4.1-2.11,6.55-2.76,2.45-.64,4.98-.96,7.61-.96,3.37,0,6.21.33,8.5.99,2.29.66,4.13,1.58,5.52,2.76,1.38,1.18,2.37,2.62,2.96,4.33.59,1.7.89,3.58.89,5.64v31.97c0,1.58.46,2.99,1.39,4.22.93,1.24,2.06,2.19,3.41,2.86h-10.32ZM86.05,82.09c-1.49.48-3.02,1.01-4.6,1.62-1.59.6-3.13,1.29-4.65,2.05-1.52.76-2.97,1.57-4.35,2.45-1.38.88-2.6,1.82-3.64,2.83-1.04,1.01-1.87,2.08-2.48,3.19-.61,1.11-.91,2.28-.91,3.49,0,1.28.24,2.49.71,3.62.48,1.13,1.1,2.12,1.87,2.99.78.86,1.67,1.53,2.68,2.02,1.01.49,2.06.73,3.13.73,1.14,0,2.24-.15,3.29-.45,1.04-.3,2.06-.72,3.03-1.24.98-.52,1.95-1.12,2.93-1.79.98-.68,1.97-1.4,2.98-2.18v-19.32Z"/>
  <path class="st2" d="M152.09,63.18v4.35h-8.59c.98,1.38,1.78,2.96,2.4,4.73.62,1.77.93,3.52.93,5.23,0,2.7-.59,5.14-1.77,7.34-1.18,2.19-2.82,4.08-4.93,5.66-2.11,1.59-4.63,2.81-7.56,3.67-2.93.86-6.17,1.29-9.71,1.29-1.31,0-2.65-.1-4.02-.31-1.36-.2-2.55-.47-3.57-.81-.97.81-1.8,1.74-2.48,2.81-.68,1.06-1.01,2.13-1.01,3.21s.56,1.87,1.69,2.48c1.13.6,2.74.96,4.83,1.06l19.12.86c3.07.13,5.62.5,7.66,1.09,2.04.59,3.67,1.38,4.88,2.38,1.21,1,2.08,2.17,2.58,3.51.51,1.35.76,2.87.76,4.55,0,3-.7,5.72-2.1,8.17-1.4,2.45-3.41,4.53-6.04,6.25-2.63,1.72-5.84,3.05-9.63,4-3.79.94-8.09,1.42-12.87,1.42-4.29,0-8.03-.26-11.23-.76-3.2-.51-5.86-1.22-7.99-2.15-2.13-.93-3.71-2.04-4.76-3.34-1.04-1.3-1.57-2.76-1.57-4.37,0-1.42.35-2.77,1.06-4.07.71-1.3,1.62-2.55,2.73-3.74,1.11-1.2,2.34-2.35,3.69-3.46,1.35-1.11,2.68-2.18,4-3.19-.95-.31-1.83-.67-2.66-1.09-.83-.42-1.54-.9-2.15-1.44-.61-.54-1.08-1.12-1.42-1.75-.34-.63-.51-1.29-.51-2,0-1.04.28-2.13.84-3.26.56-1.13,1.32-2.21,2.27-3.24.96-1.03,2.08-1.97,3.34-2.83,1.27-.86,2.62-1.54,4.07-2.05-3.47-1.48-6.2-3.54-8.17-6.19-1.98-2.65-2.96-5.69-2.96-9.13,0-2.53.58-4.92,1.75-7.18,1.16-2.26,2.77-4.23,4.83-5.92,2.06-1.68,4.46-3.02,7.21-4,2.75-.98,5.73-1.47,8.93-1.47,1.55,0,3.08.1,4.58.3,1.5.2,2.9.47,4.2.81,1.29.34,2.44.72,3.44,1.16.99.44,1.77.91,2.35,1.42h13.55ZM111.78,111.83c-.78.57-1.45,1.21-2.02,1.92-.57.71-1.06,1.45-1.47,2.22-.41.78-.71,1.56-.91,2.36-.2.79-.3,1.54-.3,2.25,0,1.15.41,2.24,1.21,3.29.81,1.04,2.02,1.97,3.64,2.78,1.62.81,3.65,1.45,6.09,1.92,2.45.47,5.28.71,8.52.71,3.44,0,6.52-.27,9.23-.81,2.71-.54,5.02-1.26,6.93-2.15,1.9-.89,3.35-1.89,4.35-2.99.99-1.1,1.49-2.2,1.49-3.31s-.29-2.14-.88-2.98c-.59-.85-1.44-1.54-2.55-2.08-1.11-.54-2.46-.94-4.05-1.21-1.58-.27-3.37-.4-5.36-.4-2.49,0-5-.06-7.53-.18-2.53-.12-4.89-.25-7.08-.4-2.19-.15-4.11-.32-5.77-.51-1.65-.18-2.83-.33-3.54-.43M124.58,92.77c1.45,0,2.85-.33,4.2-.99,1.35-.66,2.54-1.56,3.57-2.71,1.03-1.15,1.85-2.49,2.45-4.02.61-1.54.91-3.2.91-4.98,0-2.53-.35-4.88-1.04-7.05-.69-2.18-1.63-4.06-2.81-5.67-1.18-1.6-2.56-2.86-4.15-3.77-1.59-.91-3.25-1.37-5.01-1.37s-3.21.35-4.48,1.06c-1.26.71-2.3,1.69-3.11,2.96-.81,1.27-1.41,2.75-1.8,4.45-.39,1.7-.58,3.53-.58,5.49,0,2.33.29,4.5.86,6.53.57,2.02,1.38,3.78,2.42,5.28,1.04,1.5,2.29,2.67,3.75,3.51,1.45.85,3.05,1.27,4.8,1.27"/>
  <path class="st2" d="M174.31,113.35c-3.98,0-7.64-.69-10.97-2.08-3.34-1.38-6.22-3.26-8.65-5.64-2.43-2.38-4.33-5.16-5.69-8.35-1.37-3.18-2.05-6.6-2.05-10.24s.68-7.39,2.05-10.75c1.36-3.35,3.26-6.28,5.69-8.77,2.43-2.49,5.31-4.46,8.65-5.89,3.34-1.43,6.99-2.15,10.97-2.15s7.58.66,10.9,1.97c3.32,1.32,6.19,3.12,8.62,5.41,2.43,2.3,4.33,4.99,5.69,8.07,1.36,3.09,2.05,6.4,2.05,9.94,0,3.91-.68,7.6-2.05,11.05-1.36,3.46-3.26,6.47-5.69,9.05-2.43,2.58-5.3,4.62-8.62,6.12-3.32,1.5-6.96,2.25-10.9,2.25M176.28,109.56c2.02,0,3.87-.52,5.56-1.57,1.69-1.04,3.14-2.45,4.35-4.23,1.21-1.77,2.16-3.82,2.83-6.14.67-2.33,1.01-4.79,1.01-7.39,0-3.74-.32-7.25-.96-10.52-.64-3.27-1.69-6.12-3.13-8.55-1.45-2.42-3.34-4.34-5.66-5.74-2.33-1.4-5.16-2.1-8.5-2.1-1.72,0-3.39.5-5.01,1.49-1.62,1-3.05,2.35-4.28,4.07-1.23,1.72-2.22,3.74-2.96,6.04-.74,2.31-1.11,4.77-1.11,7.36,0,3.78.39,7.32,1.19,10.62.79,3.31,1.95,6.19,3.49,8.65,1.54,2.47,3.4,4.41,5.61,5.85,2.21,1.43,4.73,2.15,7.56,2.15"/>
  <path class="st2" d="M230.59,113.35c-3.98,0-7.64-.69-10.97-2.08-3.34-1.38-6.22-3.26-8.65-5.64-2.43-2.38-4.32-5.16-5.69-8.35-1.37-3.18-2.05-6.6-2.05-10.24s.68-7.39,2.05-10.75c1.36-3.35,3.26-6.28,5.69-8.77,2.43-2.49,5.31-4.46,8.65-5.89,3.34-1.43,6.99-2.15,10.97-2.15s7.58.66,10.9,1.97c3.32,1.32,6.19,3.12,8.62,5.41,2.43,2.3,4.33,4.99,5.69,8.07,1.36,3.09,2.05,6.4,2.05,9.94,0,3.91-.68,7.6-2.05,11.05-1.36,3.46-3.26,6.47-5.69,9.05-2.43,2.58-5.3,4.62-8.62,6.12-3.32,1.5-6.96,2.25-10.9,2.25M232.57,109.56c2.02,0,3.87-.52,5.56-1.57,1.69-1.04,3.14-2.45,4.35-4.23,1.21-1.77,2.16-3.82,2.83-6.14.67-2.33,1.01-4.79,1.01-7.39,0-3.74-.32-7.25-.96-10.52-.64-3.27-1.69-6.12-3.14-8.55-1.45-2.42-3.34-4.34-5.66-5.74-2.33-1.4-5.16-2.1-8.5-2.1-1.72,0-3.39.5-5.01,1.49-1.62,1-3.05,2.35-4.28,4.07-1.23,1.72-2.22,3.74-2.96,6.04-.74,2.31-1.11,4.77-1.11,7.36,0,3.78.39,7.32,1.19,10.62.79,3.31,1.95,6.19,3.49,8.65,1.54,2.47,3.4,4.41,5.61,5.85,2.21,1.43,4.73,2.15,7.56,2.15"/>
  <path class="st2" d="M267.43,59.48h2.93v10.47c3.13-3.51,6.39-6.13,9.76-7.87,3.37-1.73,6.79-2.6,10.27-2.6,1.82,0,3.52.4,5.09,1.22,1.57.81,2.94,1.92,4.12,3.34,1.18,1.41,2.11,3.07,2.78,4.98.68,1.91,1.01,3.94,1.01,6.1v37.12h-10.26v-35.35c0-1.72-.2-3.23-.61-4.53-.41-1.3-.98-2.38-1.72-3.26-.74-.88-1.61-1.54-2.61-2-.99-.46-2.1-.68-3.31-.68-1.08,0-2.23.19-3.44.56-1.21.37-2.45.88-3.72,1.54-1.27.66-2.52,1.44-3.77,2.35-1.25.91-2.45,1.92-3.59,3.03v31.03c0,4.03-3.27,7.3-7.3,7.3h-3.02v-49.87l7.39-2.89Z"/>
  <path class="st1" d="M303.38,162.14c-7.09,2.56-13.53,4.88-23.31,4.83-24.9-.06-50.45-17.82-71.91-5.69,27.04-4.24,45.58,13.35,72.19,10.46,8.56-.97,16.25-4.13,23.04-9.6"/>
  <path class="st1" d="M249.4,172.51c-21.18.9-35.57-3.81-51.69-9.53-13.77-3.95-30.75-5.5-41.6,3.9,11.35-4.27,23.77-2.74,34.16.2,9.48,2.99,34.83,14.67,59.12,5.43"/>
  <path class="st2" d="M54.17,133.4c-7.02-3.63-7.62-6.51-7.63-10.9v-1.11c0-.06.03-.12.03-.18V54.78c.11-8.15-10.32-10.32-10.32-10.32v73.91h-.04v.45c-.14,5.7-4.74,9.98-10.13,9.98h-2.04l-.02,1.59c9.09.16,18.75,2.75,27.98,7.77,46.01,25.04,80.8,26.75,104.12-4.39,0,0-37.37,33.02-101.95-.37"/>
</svg>